<svg width="50" height="56" viewBox="0 0 50 56" fill="none" xmlns="http://www.w3.org/2000/svg">
<path fill-rule="evenodd" clip-rule="evenodd" d="M35.499 23.5156L48.3177 44.1328C51.5224 49.2734 47.8365 56 41.7443 56H8.25366C2.17241 56 -1.52446 49.2844 1.68022 44.1328L14.499 23.5156V7H13.624C12.1693 7 10.999 5.82969 10.999 4.375V2.625C10.999 1.17031 12.1693 0 13.624 0H36.374C37.8287 0 38.999 1.17031 38.999 2.625V4.375C38.999 5.82969 37.8287 7 36.374 7H35.499V23.5156ZM20.8537 26.5125L15.5818 35H34.3943L29.1224 26.5125C28.7287 25.9437 28.488 25.2547 28.488 24.5V7H21.488V24.5C21.488 25.2437 21.2584 25.9437 20.8537 26.5125Z" fill="#FCFCFC"/>
</svg>
