<svg width="56" height="51" viewBox="0 0 56 51" fill="none" xmlns="http://www.w3.org/2000/svg">
<path fill-rule="evenodd" clip-rule="evenodd" d="M4.3327 34.4267H1.17289C0.130061 34.4267 -0.392184 33.1648 0.345143 32.4269L6.88335 25.8831C7.34053 25.4256 8.08166 25.4256 8.53875 25.8831L15.0769 32.4269C15.8144 33.1648 15.2921 34.4267 14.2493 34.4267H10.8211C12.8009 39.7313 19.1299 42.8827 24.8786 43.605V25.0547H19.8064C19.16 25.0547 18.6359 24.5301 18.6359 23.8832V19.9781C18.6359 19.3312 19.16 18.8066 19.8064 18.8066H24.8786V18.2726C21.2419 16.9859 18.6359 13.5151 18.6359 9.43454C18.6359 4.214 22.9008 -0.00968642 28.1336 0.0634353C33.2288 0.134507 37.3646 4.33574 37.364 9.43571C37.3635 13.5158 34.7578 16.9861 31.1213 18.2726V18.8066H36.1935C36.8399 18.8066 37.364 19.3312 37.364 19.9781V23.8832C37.364 24.5301 36.8399 25.0547 36.1935 25.0547H31.1213V43.605C36.8913 42.88 43.1997 39.7295 45.1789 34.4267H41.7506C40.7078 34.4267 40.1856 33.1649 40.923 32.4269L47.4612 25.8831C47.9184 25.4256 48.6595 25.4256 49.1166 25.8831L55.6548 32.4269C56.3922 33.1648 55.87 34.4267 54.8271 34.4267H51.6673C49.5427 44.4451 38.3619 50.0469 28 50.0469C17.655 50.0469 6.45981 44.4563 4.3327 34.4267ZM31.1214 9.43454C31.1214 7.71193 29.7212 6.31051 28 6.31051C26.2789 6.31051 24.8786 7.71193 24.8786 9.43454C24.8786 11.1571 26.2789 12.5586 28 12.5586C29.7212 12.5586 31.1214 11.1571 31.1214 9.43454Z" fill="#FCFCFC"/>
</svg>

