<svg width="54" height="56" viewBox="0 0 54 56" fill="none" xmlns="http://www.w3.org/2000/svg">
<path fill-rule="evenodd" clip-rule="evenodd" d="M29.1144 1.38313L31.9052 8.20736C32.366 9.33403 33.7286 9.77678 34.7636 9.13618L41.0326 5.25566C42.7268 4.20697 44.8397 5.74205 44.3658 7.67744L42.6125 14.8388C42.323 16.0211 43.1652 17.1803 44.3791 17.2703L51.7317 17.8157C53.7188 17.9632 54.5258 20.447 53.005 21.7342L47.3773 26.4972C46.4482 27.2836 46.4482 28.7163 47.3773 29.5027L53.0051 34.2657C54.526 35.553 53.719 38.0368 51.7318 38.1842L44.3792 38.7297C43.1653 38.8197 42.3231 39.9788 42.6126 41.1612L44.3659 48.3225C44.8397 50.2579 42.7268 51.793 41.0327 50.7443L34.7637 46.8638C33.7287 46.223 32.366 46.6658 31.9053 47.7926L29.1145 54.6168C28.3603 56.4611 25.7486 56.4611 24.9944 54.6168L22.2035 47.7926C21.7428 46.6659 20.3802 46.2232 19.3451 46.8638L13.0761 50.7443C11.3819 51.793 9.26897 50.2579 9.74289 48.3225L11.4962 41.1612C11.7857 39.9788 10.9435 38.8197 9.72955 38.7297L2.37692 38.1842C0.389907 38.0368 -0.417171 35.553 1.10369 34.2657L6.73136 29.5028C7.6605 28.7164 7.6605 27.2837 6.73136 26.4973L1.10358 21.7342C-0.41739 20.447 0.389688 17.9632 2.37681 17.8157L9.72944 17.2703C10.9434 17.1803 11.7856 16.0211 11.4961 14.8388L9.74278 7.67744C9.26897 5.74205 11.3819 4.20697 13.076 5.25566L19.345 9.13618C20.38 9.77689 21.7426 9.33414 22.2034 8.20736L24.9943 1.38313C25.7485 -0.461043 28.3602 -0.461043 29.1144 1.38313ZM41.9293 28C41.9293 19.7978 35.2564 13.125 27.0543 13.125C18.8522 13.125 12.1793 19.7978 12.1793 28C12.1793 36.2021 18.8522 42.875 27.0543 42.875C35.2564 42.875 41.9293 36.2021 41.9293 28ZM27.0543 39.375C33.3265 39.375 38.4293 34.2722 38.4293 28C38.4293 21.7278 33.3265 16.625 27.0543 16.625C20.7821 16.625 15.6793 21.7278 15.6793 28C15.6793 34.2722 20.7821 39.375 27.0543 39.375Z" fill="#FCFCFC"/>
</svg>
