<svg width="42" height="50" viewBox="0 0 42 50" fill="none" xmlns="http://www.w3.org/2000/svg">
<path d="M40.6868 25H35.4348C34.7419 25 34.125 25.5373 34.125 26.23C34.125 37.25 25.1758 42.5 15.75 42.5V25.0854L30.4722 21.8138C31.0727 21.6804 31.5 21.1477 31.5 20.5326V16.0508C31.5 15.2112 30.7225 14.5874 29.9028 14.7696L15.75 17.9146V14.5853L30.4722 11.3137C31.0727 11.1802 31.5 10.6476 31.5 10.0325V5.55083C31.5 4.71116 30.7225 4.08739 29.9028 4.26961L15.75 7.41458V1.8125C15.75 1.08767 15.1623 0.5 14.4375 0.5H8.3125C7.58767 0.5 7 1.08767 7 1.8125V9.35905L1.0278 10.6862C0.427281 10.8196 1.44306e-05 11.3523 0 11.9674V16.4492C0 17.2888 0.777547 17.9126 1.5972 17.7304L7 16.5298V19.859L1.0278 21.1862C0.427281 21.3196 1.44306e-05 21.8523 0 22.4674V26.9492C0 27.7888 0.777547 28.4126 1.5972 28.2304L7 27.0298V48.1875C7 48.9123 7.58767 49.5 8.3125 49.5H17.0169C31.6831 49.5 41.4354 40.9869 41.999 26.3571C42.0276 25.6153 41.4291 25 40.6868 25V25Z" fill="#FCFCFC"/>
</svg>
