<svg width="50" height="56" viewBox="0 0 50 56" fill="none" xmlns="http://www.w3.org/2000/svg">
<path d="M49.1518 32.9918C49.4735 32.4295 49.5771 31.7685 49.4428 31.1348C49.1448 29.7166 47.7651 28.8111 46.3613 29.1122L36.8011 31.8516L29.375 28L36.8011 24.1484L46.3613 26.8878C47.7651 27.1889 49.1448 26.2834 49.4428 24.8652C49.7409 23.447 48.8444 22.0534 47.4407 21.7523L42.2479 20.9717L48.0532 17.5859C49.296 16.861 49.7219 15.2555 49.0043 14C48.2867 12.7445 46.6975 12.3143 45.4547 13.0391L39.6494 16.425L41.5767 11.4917C42.0204 10.1129 41.2739 8.63198 39.909 8.18366C38.5443 7.73533 37.0781 8.48958 36.6344 9.86825L34.2027 19.6015L27.5987 23.4532V15.75L34.7272 8.75602C35.6873 7.67845 35.6008 6.01869 34.534 5.04886C33.4673 4.07903 31.8243 4.16642 30.8643 5.24398L27.5987 9.39663V2.625C27.5987 1.17523 26.4352 0 25.0001 0C23.565 0 22.4016 1.17523 22.4016 2.625V9.39663L19.136 5.24398C18.1758 4.16642 16.533 4.07892 15.4662 5.04886C14.3995 6.01869 14.3131 7.67845 15.2731 8.75602L22.4015 15.75V23.4534L15.7974 19.6018L13.3658 9.86847C12.9221 8.4898 11.4559 7.73555 10.0911 8.18387C8.72633 8.6322 7.97974 10.1133 8.42347 11.4919L10.3507 16.4252L4.54537 13.0394C3.30254 12.3145 1.71332 12.7447 0.99571 14.0002C0.2781 15.2557 0.704007 16.8611 1.94683 17.5861L7.75213 20.9719L2.55933 21.7525C1.15551 22.0537 0.259069 23.4473 0.557225 24.8654C0.855272 26.2835 2.23493 27.1891 3.63876 26.888L13.1989 24.1486L20.625 28L13.1989 31.8516L3.63887 29.1123C2.23504 28.8112 0.855382 29.7167 0.557335 31.1349C0.259288 32.5532 1.15562 33.9467 2.55944 34.2478L7.75224 35.0284L1.94694 38.4143C0.704116 39.1391 0.278319 40.7445 0.995819 42C1.71332 43.2555 3.30265 43.6857 4.54548 42.9609L10.3508 39.575L8.42359 44.5083C8.19488 45.2162 8.27518 45.9876 8.64474 46.6332C8.95438 47.175 9.45587 47.6077 10.0911 47.8162C11.4559 48.2646 12.9221 47.5103 13.3658 46.1316L15.7974 36.3984L22.4015 32.5467V40.25L15.273 47.244C14.3129 48.3215 14.3994 49.9813 15.4661 50.9511C16.533 51.9211 18.1758 51.8336 19.1359 50.756L22.4015 46.6034V53.375C22.4015 54.8248 23.5649 56 25 56C26.4351 56 27.5986 54.8248 27.5986 53.375V46.6034L30.8642 50.756C31.3541 51.309 32.0577 51.6254 32.7965 51.625C33.4395 51.6253 34.0593 51.3849 34.5339 50.9511C35.6006 49.9813 35.6872 48.3215 34.7271 47.244L27.5986 40.25V32.5466L34.2026 36.3982L36.6342 46.1315C37.078 47.5102 38.5441 48.2645 39.9089 47.8161C41.2738 47.3678 42.0203 45.8867 41.5766 44.5081L39.6493 39.5748L45.4546 42.9606C46.6974 43.6855 48.2866 43.2553 49.0042 41.9998C49.7218 40.7443 49.2959 39.1389 48.0531 38.4139L42.2478 35.0281L47.4406 34.2475C48.1909 34.0868 48.7962 33.6139 49.1518 32.9918Z" fill="#FCFCFC"/>
</svg>
