<svg width="52" height="56" viewBox="0 0 52 56" fill="none" xmlns="http://www.w3.org/2000/svg">
<path fill-rule="evenodd" clip-rule="evenodd" d="M50.2642 45.634C45.0293 52.0839 37.1296 56 28.5156 56C13.0474 56 0.515625 43.4613 0.515625 28C0.515625 12.5316 13.0544 0 28.5156 0C30.2302 0.000279597 31.9411 0.15686 33.6273 0.467797C38.4421 1.35712 39.508 7.78159 35.2703 10.1933C30.745 12.7684 27.8947 17.5665 27.8947 22.8629C27.8947 31.9983 36.1989 38.8836 45.2057 37.1683C49.9844 36.2581 53.3562 41.8243 50.2642 45.634ZM32.6736 5.63041C31.3254 5.38136 29.9359 5.25 28.5156 5.25C15.9512 5.25 5.76562 15.4355 5.76562 28C5.76562 40.5645 15.9512 50.75 28.5156 50.75C35.6503 50.75 42.0168 47.4648 46.1879 42.3255C33.9804 44.6504 22.6447 35.315 22.6447 22.8629C22.6447 15.4787 26.6843 9.03886 32.6736 5.63041Z" fill="#FCFCFC"/>
</svg>
